<svg width="32" height="32" viewBox="0 0 32 32" fill="none" xmlns="http://www.w3.org/2000/svg">
<g clip-path="url(#clip0_12638_53129)">
<rect width="32" height="32" rx="7.16667" fill="#190101"/>
<g clip-path="url(#clip1_12638_53129)">
<rect opacity="0.720266" x="8.05859" y="5.06152" width="15.9063" height="21.9004" rx="3.34046" stroke="black" stroke-opacity="0.25" stroke-width="0.0625"/>
<rect opacity="0.720266" x="6.56006" y="6.56003" width="18.9034" height="18.9034" rx="3.34046" stroke="black" stroke-opacity="0.25" stroke-width="0.0625"/>
<rect opacity="0.720266" x="5.06152" y="8.05856" width="21.9004" height="15.9063" rx="3.34046" stroke="black" stroke-opacity="0.25" stroke-width="0.0625"/>
<path d="M16.0117 5.06152C22.0593 5.06152 26.9619 9.96409 26.9619 16.0117C26.9619 22.0594 22.0594 26.9619 16.0117 26.9619C9.96409 26.9619 5.06152 22.0593 5.06152 16.0117C5.06153 9.9641 9.9641 5.06153 16.0117 5.06152Z" stroke="black" stroke-opacity="0.25" stroke-width="0.0625"/>
<path d="M16.0117 11.1025C18.723 11.1025 20.9209 13.3004 20.9209 16.0117C20.9209 18.723 18.723 20.9208 16.0117 20.9208C13.3004 20.9208 11.1025 18.7229 11.1025 16.0117C11.1026 13.3004 13.3005 11.1025 16.0117 11.1025Z" stroke="black" stroke-opacity="0.25" stroke-width="0.0625"/>
<rect x="12.5542" y="12.5542" width="6.91506" height="6.91506" stroke="black" stroke-opacity="0.25" stroke-width="0.0625"/>
<path d="M12.5464 4.02338V28" stroke="black" stroke-opacity="0.25" stroke-width="0.0625" stroke-linecap="square"/>
<path d="M16.0117 4V27.9766" stroke="black" stroke-opacity="0.25" stroke-width="0.0625" stroke-linecap="square"/>
<path d="M19.477 4V27.9766" stroke="black" stroke-opacity="0.25" stroke-width="0.0625" stroke-linecap="square"/>
<path d="M28 12.5463H4.02344" stroke="black" stroke-opacity="0.25" stroke-width="0.0625" stroke-linecap="square"/>
<path d="M27.9766 16.0117H4" stroke="black" stroke-opacity="0.25" stroke-width="0.0625" stroke-linecap="square"/>
<path d="M28 19.4771H4.02344" stroke="black" stroke-opacity="0.25" stroke-width="0.0625" stroke-linecap="square"/>
<path d="M4.02344 4.02338L28 28" stroke="black" stroke-opacity="0.25" stroke-width="0.0625" stroke-linecap="square"/>
<path d="M28 4.02341L4.02341 28" stroke="black" stroke-opacity="0.25" stroke-width="0.0625" stroke-linecap="square"/>
</g>
<rect x="4.03125" y="4.03125" width="23.9375" height="23.9375" stroke="black" stroke-opacity="0.25" stroke-width="0.0625"/>
<path d="M0 4C0 1.79086 1.79086 0 4 0H28C30.2091 0 32 1.79086 32 4V28C32 30.2091 30.2091 32 28 32H4C1.79086 32 0 30.2091 0 28V4Z" fill="url(#paint0_linear_12638_53129)"/>
<path d="M0 4C0 1.79086 1.79086 0 4 0H28C30.2091 0 32 1.79086 32 4V28C32 30.2091 30.2091 32 28 32H4C1.79086 32 0 30.2091 0 28V4Z" fill="url(#paint1_radial_12638_53129)" fill-opacity="0.5" style="mix-blend-mode:overlay"/>
<path d="M0 4C0 1.79086 1.79086 0 4 0H28C30.2091 0 32 1.79086 32 4V28C32 30.2091 30.2091 32 28 32H4C1.79086 32 0 30.2091 0 28V4Z" fill="url(#paint2_radial_12638_53129)" fill-opacity="0.3"/>
<g clip-path="url(#clip2_12638_53129)">
<path fill-rule="evenodd" clip-rule="evenodd" d="M13.166 26.6667C9.58298 26.6667 6.71631 23.4976 6.71631 16.3554C6.71631 9.21327 9.58298 6.04422 13.166 6.04422C16.0326 6.04422 16.749 7.11123 16.749 7.82211L16.7448 9.90606C16.77 10.3902 16.6494 10.7408 16.2345 10.7408C15.9359 10.7408 15.7046 10.5307 15.6289 10.0883C15.3612 8.52743 14.5986 7.46876 13.166 7.46876C11.7333 7.46876 9.58298 9.25083 9.58298 16.3568C9.58298 23.4628 11.7333 25.2449 13.166 25.2449C15.3149 25.2449 15.3149 20.6221 16.327 20.6221C16.6564 20.6221 16.749 20.9449 16.749 21.2718V24.1779C16.749 24.8888 15.6514 26.6667 13.166 26.6667Z" fill="#21090B"/>
<path fill-rule="evenodd" clip-rule="evenodd" d="M12.4497 25.9572C8.86667 25.9572 6 22.7881 6 15.646C6 8.50378 8.86667 5.33334 12.4497 5.33334C15.3163 5.33334 16.0326 6.40036 16.0326 7.11124L16.0284 9.19518C16.0537 9.67931 15.9331 10.0299 15.5182 10.0299C15.2196 10.0299 14.9883 9.81981 14.9126 9.37743C14.6449 7.81655 13.8823 6.75788 12.4497 6.75788C11.017 6.75788 8.86667 8.53995 8.86667 15.646C8.86667 22.752 11.017 24.534 12.4497 24.534C14.5986 24.534 14.5986 19.9112 15.6107 19.9112C15.9401 19.9112 16.0326 20.234 16.0326 20.5609V23.467C16.0326 24.1779 14.935 25.9558 12.4497 25.9558V25.9572Z" fill="url(#paint3_linear_12638_53129)"/>
<path fill-rule="evenodd" clip-rule="evenodd" d="M15.4215 6.03032C15.8771 6.37115 16.0327 6.78015 16.0327 7.10986L16.0285 9.1938C16.0537 9.67793 15.9331 10.0285 15.5182 10.0285C15.2883 10.0285 15.0991 9.90468 14.9897 9.64732C15.043 9.66401 15.1005 9.67236 15.1607 9.67236C15.5757 9.67236 15.6962 9.3204 15.671 8.83767L15.6752 6.75372C15.6752 6.53253 15.6051 6.27656 15.4229 6.02893L15.4215 6.03032ZM13.822 7.20167C13.4576 6.91649 13.0034 6.75789 12.4483 6.75789C11.0156 6.75789 8.86528 8.53996 8.86528 15.646C8.86528 20.1213 9.71757 22.4849 10.7072 23.6228C9.57459 22.6629 8.50642 20.2994 8.50642 15.2912C8.50642 8.18522 10.6554 6.40315 12.0894 6.40315C12.8436 6.40315 13.4127 6.69668 13.822 7.20306V7.20167ZM15.643 19.9126C15.9457 19.9335 16.0327 20.2437 16.0327 20.5609V23.467C16.0327 24.1779 14.9351 25.9558 12.4497 25.9558C10.9441 25.9558 9.56337 25.3952 8.46997 24.2155C9.50029 25.1531 10.7451 25.6011 12.0908 25.6011C14.5762 25.6011 15.6738 23.8232 15.6738 23.1123V20.2062C15.6738 20.1046 15.6654 20.0045 15.643 19.914V19.9126Z" fill="#BA8942"/>
<path fill-rule="evenodd" clip-rule="evenodd" d="M8.82742 24.5716C7.11723 23.0135 6 20.1032 6 15.646C6 8.50378 8.86667 5.33334 12.4497 5.33334C14.4234 5.33334 15.378 5.83833 15.7803 6.38645C15.2575 5.99414 14.3407 5.68948 12.8085 5.68948C9.22413 5.68948 6.35886 8.85853 6.35886 16.0007C6.35886 20.1394 7.32189 22.944 8.82882 24.5702L8.82742 24.5716ZM15.3486 10.0048C15.1341 9.93667 14.9743 9.73217 14.9126 9.37882C14.7865 8.64011 14.5481 8.0141 14.1823 7.5578C14.7584 8.00992 15.1075 8.77784 15.2715 9.73356C15.2897 9.83651 15.3149 9.92693 15.3486 10.0048ZM11.0675 23.9776C11.5413 24.3782 12.0277 24.534 12.4497 24.534C14.5986 24.534 14.5986 19.9112 15.6107 19.9112C15.8392 19.9112 15.9527 20.0643 16.0018 20.2688C15.9906 20.2688 15.9808 20.2674 15.9682 20.2674C14.9561 20.2674 14.9561 24.8902 12.8071 24.8902C12.2772 24.8902 11.6478 24.6453 11.0661 23.9776H11.0675Z" fill="url(#paint4_linear_12638_53129)"/>
<path d="M18.4254 26.3105H25.9489C26.6652 26.3105 26.6652 25.5997 26.6652 24.8888V21.333C26.6652 20.9407 26.6077 20.6221 26.2124 20.6221C25.5171 20.6221 25.6867 24.8888 23.7985 24.8888C23.0079 24.8888 22.3659 24.9639 22.3659 24.1779V9.24386C22.3659 7.82211 23.7985 7.10984 23.7985 6.75509C23.7985 6.55894 23.6387 6.39896 23.4397 6.39896H18.424C18.2264 6.39896 18.0652 6.55894 18.0652 6.75509C18.0652 7.11123 19.4978 7.82211 19.4978 9.24386V23.4656C19.4978 24.8874 18.0652 25.5983 18.0652 25.9544C18.0652 26.1505 18.2264 26.3105 18.424 26.3105H18.4254Z" fill="#21090B"/>
<path d="M17.7077 25.601H25.2326C25.9489 25.601 25.9489 24.8902 25.9489 24.1793V20.6235C25.9489 20.2312 25.8914 19.9126 25.4961 19.9126C24.8008 19.9126 24.9704 24.1793 23.0822 24.1793C22.2916 24.1793 21.6496 24.2544 21.6496 23.4684V8.53299C21.6496 7.11123 23.0822 6.39896 23.0822 6.04422C23.0822 5.84806 22.9224 5.68808 22.7234 5.68808H17.7077C17.5101 5.68808 17.3489 5.84806 17.3489 6.04422C17.3489 6.40035 18.7815 7.11123 18.7815 8.53299V22.7547C18.7815 24.1765 17.3489 24.8888 17.3489 25.2435C17.3489 25.4397 17.5101 25.5997 17.7077 25.5997V25.601Z" fill="url(#paint5_linear_12638_53129)"/>
<path d="M17.3503 25.2449C17.3503 25.4411 17.5115 25.601 17.7092 25.601C17.7092 25.2449 19.1418 24.534 19.1418 23.1123V8.88912C19.1418 7.46736 17.7092 6.75509 17.7092 6.40035C17.7092 6.2042 17.8704 6.04422 18.0681 6.04422H23.0837C23.0837 5.84806 22.9239 5.68808 22.7248 5.68808H17.7092C17.5115 5.68808 17.3503 5.84806 17.3503 6.04422C17.3503 6.40035 18.783 7.11123 18.783 8.53299V22.7547C18.783 24.1765 17.3503 24.8888 17.3503 25.2435V25.2449Z" fill="url(#paint6_linear_12638_53129)"/>
<path d="M23.0823 24.1793C22.6743 24.1793 22.3057 24.1988 22.0449 24.1097C22.1935 24.5897 22.7612 24.534 23.4397 24.534C25.3279 24.534 25.1583 20.2674 25.8536 20.2674C25.876 20.2674 25.8985 20.2674 25.9195 20.2701C25.8746 20.0559 25.7625 19.9112 25.4947 19.9112C24.7995 19.9112 24.9691 24.1779 23.0808 24.1779L23.0823 24.1793Z" fill="url(#paint7_linear_12638_53129)"/>
<path d="M23.0823 6.04422C23.0823 5.84806 22.9211 5.68808 22.7234 5.68808C22.7234 6.04422 21.2908 6.75509 21.2908 8.17685V23.1109C21.2908 23.4921 21.4408 23.6701 21.6875 23.7536C21.6622 23.6743 21.6496 23.5797 21.6496 23.467V8.53299C21.6496 7.11123 23.0823 6.39896 23.0823 6.04422Z" fill="#BA8942"/>
<path d="M25.9489 20.6221C25.9489 20.2521 25.8984 19.9488 25.562 19.914C25.5844 20.0184 25.59 20.138 25.59 20.266V23.8218C25.59 24.5327 25.59 25.2435 24.8737 25.2435H17.3489C17.3489 25.4397 17.5087 25.5983 17.7077 25.5983H25.2326C25.9489 25.5983 25.9489 24.8874 25.9489 24.1765V20.6207V20.6221Z" fill="#BA8942"/>
</g>
</g>
<defs>
<linearGradient id="paint0_linear_12638_53129" x1="-506.154" y1="0" x2="-506.154" y2="32" gradientUnits="userSpaceOnUse">
<stop stop-color="#2D0508"/>
<stop offset="1" stop-color="#240101"/>
</linearGradient>
<radialGradient id="paint1_radial_12638_53129" cx="0" cy="0" r="1" gradientTransform="matrix(-2.02408 32.4035 -31.4482 -1.03846 16.0241 0.404539)" gradientUnits="userSpaceOnUse">
<stop stop-color="white"/>
<stop offset="1" stop-color="white" stop-opacity="0"/>
</radialGradient>
<radialGradient id="paint2_radial_12638_53129" cx="0" cy="0" r="1" gradientUnits="userSpaceOnUse" gradientTransform="translate(16.0241) rotate(90) scale(11.4889 33.1007)">
<stop stop-color="#FF8D1C"/>
<stop offset="1" stop-color="#310406" stop-opacity="0"/>
</radialGradient>
<linearGradient id="paint3_linear_12638_53129" x1="11.0156" y1="26.2563" x2="11.0156" y2="5.93154" gradientUnits="userSpaceOnUse">
<stop stop-color="#6E3F0F"/>
<stop offset="0.5" stop-color="#D6A551"/>
<stop offset="1" stop-color="#FCE78A"/>
</linearGradient>
<linearGradient id="paint4_linear_12638_53129" x1="11.0002" y1="5.71035" x2="11.0002" y2="19.8027" gradientUnits="userSpaceOnUse">
<stop stop-color="white"/>
<stop offset="1" stop-color="#C89748"/>
</linearGradient>
<linearGradient id="paint5_linear_12638_53129" x1="21.6496" y1="26.2563" x2="21.6496" y2="5.93153" gradientUnits="userSpaceOnUse">
<stop stop-color="#6E3F0F"/>
<stop offset="0.5" stop-color="#D6A551"/>
<stop offset="1" stop-color="#FCE78A"/>
</linearGradient>
<linearGradient id="paint6_linear_12638_53129" x1="20.217" y1="5.71034" x2="20.217" y2="19.8027" gradientUnits="userSpaceOnUse">
<stop stop-color="white"/>
<stop offset="1" stop-color="#C89748"/>
</linearGradient>
<linearGradient id="paint7_linear_12638_53129" x1="23.9836" y1="5.71033" x2="23.9836" y2="19.8027" gradientUnits="userSpaceOnUse">
<stop stop-color="white"/>
<stop offset="1" stop-color="#C89748"/>
</linearGradient>
<clipPath id="clip0_12638_53129">
<rect width="32" height="32" rx="7.16667" fill="white"/>
</clipPath>
<clipPath id="clip1_12638_53129">
<rect x="4" y="4" width="24" height="24" fill="white"/>
</clipPath>
<clipPath id="clip2_12638_53129">
<rect width="20.6667" height="21.3333" fill="white" transform="translate(6 5.33334)"/>
</clipPath>
</defs>
</svg>
